<svg width="45" height="45" viewBox="0 0 45 45" fill="none" xmlns="http://www.w3.org/2000/svg">
<circle cx="22.5" cy="22.5" r="22.5" fill="#563AD6"/>
<g clip-path="url(#clip0_2_84)">
<path d="M22.5637 32.6598C24.3058 32.6598 25.718 31.2476 25.718 29.5055C25.718 27.7634 24.3058 26.3512 22.5637 26.3512C20.8216 26.3512 19.4094 27.7634 19.4094 29.5055C19.4094 31.2476 20.8216 32.6598 22.5637 32.6598Z" fill="#3ABAD6"/>
<path d="M30.1023 21.9058C30.0555 21.8577 30.0061 21.8148 29.958 21.7706L29.8163 21.6367C29.7929 21.612 29.7668 21.5938 29.7369 21.5704C25.6582 17.8648 19.4159 18.0117 15.5231 21.9045L15.0668 22.3622L14.4349 22.9941C13.6651 23.7638 13.669 25.0185 14.4401 25.7895C15.2124 26.5631 16.4671 26.5644 17.2355 25.7947L18.3251 24.7051C20.8007 22.2309 24.8274 22.2309 27.3017 24.7038L28.0883 25.4658C28.8502 26.2277 30.0932 26.2264 30.859 25.4593C31.2296 25.09 31.4337 24.5972 31.435 24.0732C31.4363 23.5519 31.2348 23.0591 30.8642 22.6911L30.1023 21.9058Z" fill="#3ABAD6"/>
<path d="M35.476 18.0065L34.8207 17.3512C34.8181 17.3486 34.8168 17.3447 34.8116 17.3434L34.2942 16.8233C34.2031 16.7336 34.1043 16.6556 34.0003 16.588C27.3524 10.7514 17.2407 10.9308 10.8047 17.1224C10.7735 17.151 10.7384 17.1705 10.7072 17.2017L9.524 18.3862C8.82189 19.087 8.82579 20.2272 9.5318 20.9333C10.2365 21.638 11.3768 21.6432 12.0789 20.9398L13.2621 19.7579C13.2699 19.7475 13.2764 19.7384 13.2842 19.7319C18.4889 14.704 26.7452 14.6728 31.9915 19.6292L32.9224 20.5614C33.6232 21.2622 34.7661 21.2596 35.4708 20.5549C36.1742 19.8489 36.1768 18.7073 35.476 18.0065Z" fill="#3ABAD6"/>
</g>
<defs>
<clipPath id="clip0_2_84">
<rect width="27" height="27" fill="white" transform="translate(9 9)"/>
</clipPath>
</defs>
</svg>
